<svg xmlns="http://www.w3.org/2000/svg" xmlns:xlink="http://www.w3.org/1999/xlink" version="1.1" x="0px" y="0px"
     viewBox="0 0 100 125" enable-background="new 0 0 100 100" xml:space="preserve">
	<path fill="green"
          d="M51.363,0.912c-0.031-0.029-0.067-0.049-0.1-0.076c-0.056-0.045-0.111-0.09-0.17-0.129  c-0.054-0.035-0.108-0.064-0.164-0.093c-0.06-0.032-0.119-0.063-0.181-0.087c-0.06-0.024-0.121-0.043-0.182-0.061  c-0.062-0.019-0.123-0.036-0.186-0.048c-0.063-0.012-0.127-0.019-0.191-0.025C50.127,0.386,50.064,0.381,50,0.38  c-0.063,0-0.126,0.005-0.19,0.012c-0.064,0.006-0.127,0.013-0.191,0.025c-0.063,0.012-0.124,0.03-0.185,0.048  c-0.062,0.019-0.123,0.037-0.184,0.062c-0.061,0.025-0.12,0.055-0.179,0.086c-0.057,0.03-0.113,0.06-0.167,0.096  c-0.057,0.038-0.111,0.081-0.165,0.125c-0.034,0.028-0.071,0.049-0.104,0.079C26.013,21.997,23.851,45.907,29.372,61.254  C33.012,71.37,40.038,78.2,48,79.553v18.072c0,1.104,0.896,2,2,2s2-0.896,2-2V79.553c7.963-1.353,14.988-8.183,18.628-18.299  C76.148,45.908,73.987,21.997,51.363,0.912z M66.864,59.9C63.83,68.333,58.258,74.09,52,75.474V51.808l12.507-7.697  c0.941-0.579,1.234-1.811,0.655-2.751c-0.579-0.94-1.813-1.234-2.751-0.655L52,47.111V15.489c0-1.104-0.896-2-2-2s-2,0.896-2,2  v18.051l-7.496-4.887c-0.926-0.604-2.165-0.343-2.768,0.583c-0.604,0.925-0.342,2.165,0.583,2.768L48,38.315v24.356l-7.422-5.322  c-0.897-0.646-2.147-0.438-2.791,0.46c-0.644,0.897-0.438,2.146,0.46,2.79L48,67.592v7.882c-6.258-1.384-11.83-7.141-14.864-15.574  C28.159,46.065,30.084,24.571,50,5.15C69.916,24.572,71.841,46.065,66.864,59.9z"/>
</svg>
